<?xml version="1.0" standalone="no"?>
<!DOCTYPE svg PUBLIC "-//W3C//DTD SVG 20010904//EN"
 "http://www.w3.org/TR/2001/REC-SVG-20010904/DTD/svg10.dtd">
<svg version="1.0" xmlns="http://www.w3.org/2000/svg"
 width="1200.000000pt" height="220.000000pt" viewBox="0 0 1200.000000 220.000000"
 preserveAspectRatio="xMidYMid meet">

<g transform="translate(0.000000,220.000000) scale(0.100000,-0.100000)"
fill="#000000" stroke="none">
<path d="M11270 2086 c-3 -2 -225 -16 -495 -31 -269 -14 -589 -32 -710 -40
-121 -8 -243 -15 -272 -14 -29 0 -62 -5 -73 -11 -15 -8 -25 -8 -34 -1 -8 7
-73 7 -196 1 -102 -5 -257 -12 -345 -15 -88 -4 -189 -13 -224 -21 -44 -10 -68
-11 -75 -4 -17 17 -47 12 -94 -16 -37 -22 -49 -25 -64 -15 -10 6 -23 9 -28 6
-6 -4 -10 -2 -10 4 0 19 -37 20 -228 7 -178 -12 -195 -15 -218 -36 l-24 -23 0
22 c0 23 -1 23 -97 17 -54 -4 -242 -13 -417 -21 -176 -8 -320 -16 -321 -17 -2
-2 -10 -18 -19 -35 -9 -18 -23 -33 -30 -33 -8 0 -21 -3 -30 -6 -11 -4 -16 -1
-16 10 0 10 9 16 25 16 14 0 25 5 25 11 0 6 -9 9 -20 6 -11 -3 -22 -1 -25 3
-3 5 5 11 17 13 51 10 -184 6 -272 -5 -52 -6 -124 -10 -160 -9 -132 3 -465
-18 -514 -33 -43 -13 -51 -13 -71 0 -25 16 -41 12 -98 -23 -37 -23 -40 -24
-58 -7 -10 9 -19 14 -19 9 0 -4 -6 -3 -12 3 -15 11 -99 9 -463 -12 -148 -8
-331 -18 -405 -20 -186 -7 -901 -44 -1147 -60 -194 -12 -202 -13 -222 -37
l-20 -24 -1 23 c0 16 -6 22 -22 22 -56 -1 -606 -32 -723 -41 -71 -5 -153 -10
-181 -9 -28 0 -63 -4 -79 -10 -15 -6 -32 -7 -39 -2 -11 8 -87 5 -816 -38 -195
-12 -461 -25 -590 -30 -208 -8 -420 -29 -467 -47 -11 -4 -14 -3 -9 5 8 13
-118 17 -184 6 -34 -6 -36 -8 -32 -41 4 -28 8 -34 23 -30 12 3 19 0 19 -9 0
-8 -9 -14 -19 -14 -24 0 -33 -13 -24 -35 5 -15 16 -17 82 -11 42 4 153 9 246
11 234 6 310 12 348 28 23 10 37 11 49 4 11 -8 177 -3 560 17 651 33 760 41
771 61 11 20 31 19 23 -1 -6 -15 3 -16 86 -11 51 4 203 12 338 18 182 8 249
15 261 25 10 9 19 10 25 4 10 -10 676 17 1005 40 75 5 300 16 500 25 596 24
598 24 611 49 7 11 11 24 10 29 -1 4 12 7 29 7 26 0 30 -3 27 -22 -3 -21 2
-23 42 -26 25 -2 69 -1 98 3 51 6 53 8 47 32 -4 18 -2 24 7 21 7 -3 14 -15 16
-27 3 -21 7 -22 90 -17 48 2 95 7 104 11 16 6 16 9 1 32 l-17 25 34 -7 c30 -7
33 -6 22 8 -10 12 -10 16 4 21 30 11 53 6 59 -14 3 -11 10 -20 15 -20 4 0 7
-8 6 -17 -2 -25 91 -32 100 -9 3 9 17 16 31 16 13 0 21 -4 18 -10 -3 -5 3 -10
14 -10 14 0 21 6 21 20 0 13 7 20 19 20 11 0 23 4 26 10 3 5 14 10 23 10 11 0
6 -9 -17 -27 l-33 -28 134 3 c73 1 159 7 190 13 32 5 85 7 118 3 l60 -7 1 39
c1 22 1 42 0 47 -2 11 24 8 37 -5 16 -16 15 -29 -1 -22 -8 3 -13 -4 -14 -16
-1 -12 5 -24 13 -27 12 -5 183 3 794 37 85 5 308 16 495 25 187 9 347 19 355
22 8 3 38 6 65 7 l50 1 3 36 c3 31 8 38 29 42 19 3 27 0 30 -14 3 -11 9 -19
14 -19 5 0 9 -9 9 -19 0 -15 9 -20 46 -23 26 -2 48 1 52 8 9 14 52 25 52 13 0
-18 28 -8 33 12 3 12 10 18 16 14 6 -3 21 1 33 9 39 27 44 17 8 -13 l-35 -30
180 5 c259 6 317 11 326 26 6 10 11 10 20 1 16 -16 151 -5 162 13 11 19 30 18
23 -2 -5 -13 3 -14 62 -9 37 3 166 10 287 15 460 20 619 32 637 47 9 8 23 13
30 10 8 -3 6 -6 -5 -6 -10 -1 -16 -5 -12 -10 11 -18 79 0 104 28 22 25 23 25
18 4 l-5 -23 148 0 c135 0 321 12 378 25 21 5 23 9 16 53 -4 26 -8 56 -9 67
-1 18 -33 33 -45 21z m-747 -72 c8 -8 -3 -34 -14 -34 -5 0 -9 9 -9 20 0 19 11
26 23 14z m381 -10 c27 -10 18 -25 -11 -18 -37 9 -53 24 -26 24 12 0 28 -3 37
-6z m-2071 -79 c1 -5 -6 -11 -15 -13 -11 -2 -18 3 -18 13 0 17 30 18 33 0z
m1224 -2 c-9 -9 -19 -14 -23 -11 -10 10 6 28 24 28 15 0 15 -1 -1 -17z m93
-13 c0 -5 -7 -10 -16 -10 -8 0 -12 5 -9 10 3 6 10 10 16 10 5 0 9 -4 9 -10z
m-1345 -10 c3 -5 -1 -10 -9 -10 -9 0 -16 5 -16 10 0 6 4 10 9 10 6 0 13 -4 16
-10z m259 1 c11 -16 -27 -22 -43 -6 -14 13 -13 15 11 15 15 0 29 -4 32 -9z
m1046 5 c0 -3 -4 -8 -10 -11 -5 -3 -10 -1 -10 4 0 6 5 11 10 11 6 0 10 -2 10
-4z m-1256 -21 c-4 -8 -10 -15 -15 -15 -5 0 -9 7 -9 15 0 8 7 15 15 15 9 0 12
-6 9 -15z m-528 -53 c-9 -9 -37 8 -31 18 5 8 11 7 21 -1 8 -6 12 -14 10 -17z
m-1098 -24 c-21 -13 -35 -9 -41 12 -6 25 13 32 36 12 13 -12 15 -17 5 -24z
m-308 6 c0 -8 -4 -12 -10 -9 -5 3 -10 10 -10 16 0 5 5 9 10 9 6 0 10 -7 10
-16z m523 -5 c6 -24 -18 -38 -36 -20 -8 8 -8 11 1 11 7 0 12 7 12 15 0 22 17
18 23 -6z m802 1 c-3 -5 -13 -10 -21 -10 -8 0 -14 5 -14 10 0 6 9 10 21 10 11
0 17 -4 14 -10z m30 0 c3 -5 1 -10 -4 -10 -6 0 -11 5 -11 10 0 6 2 10 4 10 3
0 8 -4 11 -10z m-2029 -11 c3 -6 1 -16 -5 -22 -9 -9 -14 -8 -21 3 -9 15 -4 30
10 30 5 0 12 -5 16 -11z m774 1 c0 -5 -9 -10 -21 -10 -11 0 -17 5 -14 10 3 6
13 10 21 10 8 0 14 -4 14 -10z m-956 -26 c10 -26 -4 -37 -25 -18 -10 9 -19 21
-19 26 0 15 38 8 44 -8z m153 -20 c-9 -9 -28 6 -21 18 4 6 10 6 17 -1 6 -6 8
-13 4 -17z m260 10 c2 -6 -5 -14 -17 -17 -11 -3 -20 -4 -20 -2 0 2 -3 11 -6
20 -5 13 -2 16 16 13 13 -1 25 -8 27 -14z m543 1 c10 -12 9 -15 -8 -15 -11 0
-22 -5 -24 -11 -2 -6 -17 -9 -33 -7 l-30 5 33 8 c17 4 32 14 32 21 0 18 14 18
30 -1z m-750 -4 c0 -12 -20 -25 -27 -18 -7 7 6 27 18 27 5 0 9 -4 9 -9z m-805
-11 c19 -7 18 -9 -9 -19 -21 -9 -32 -9 -43 0 -11 10 -11 14 -1 20 16 10 27 10
53 -1z m230 -46 c-23 -17 -32 -10 -15 11 7 8 17 12 23 8 6 -4 3 -11 -8 -19z
m85 16 c8 -5 11 -12 8 -16 -10 -9 -38 3 -38 16 0 12 10 13 30 0z m-380 -30 c0
-5 -7 -10 -15 -10 -8 0 -15 5 -15 10 0 6 7 10 15 10 8 0 15 -4 15 -10z m360
-9 c0 -6 -4 -12 -8 -15 -13 -8 -52 5 -46 15 7 12 54 12 54 0z m-1809 -67 c12
-14 11 -16 -5 -13 -11 2 -21 10 -24 17 -5 17 13 15 29 -4z m-76 -34 c-3 -5
-13 -10 -21 -10 -8 0 -14 5 -14 10 0 6 9 10 21 10 11 0 17 -4 14 -10z m30 0
c3 -5 1 -10 -4 -10 -6 0 -11 5 -11 10 0 6 2 10 4 10 3 0 8 -4 11 -10z m-757
-12 c-3 -7 -13 -15 -24 -17 -16 -3 -17 -1 -5 13 16 19 34 21 29 4z m-1002 -49
c3 -6 0 -15 -7 -20 -22 -14 -29 -11 -29 11 0 21 24 27 36 9z m-1170 -34 c-7
-18 -47 -17 -53 1 -5 14 39 34 51 24 5 -5 6 -16 2 -25z m286 -4 c33 -38 -17
-44 -52 -6 l-23 25 29 0 c17 0 37 -8 46 -19z m-374 -23 c-6 -18 -28 -21 -28
-4 0 9 7 16 16 16 9 0 14 -5 12 -12z"/>
<path d="M10658 1844 c-5 -4 -8 -15 -8 -24 0 -10 -7 -23 -15 -30 -12 -10 -15
-10 -15 3 0 9 5 19 10 22 23 14 -2 22 -41 14 -135 -31 -245 -164 -279 -337
-18 -87 -8 -250 20 -327 35 -99 78 -162 144 -206 32 -21 65 -39 72 -39 8 0 14
-4 14 -10 0 -19 42 -31 151 -41 79 -7 125 -7 162 1 56 12 96 38 76 51 -7 4 -9
15 -5 24 5 14 15 16 69 10 l63 -7 37 39 c80 81 117 196 117 363 0 131 -19 226
-51 250 -11 9 -18 22 -14 30 8 22 -63 110 -119 147 -26 18 -71 40 -99 49 -55
18 -276 32 -289 18z m95 -31 c9 -9 -12 -33 -29 -33 -8 0 -14 9 -14 20 0 19 28
28 43 13z m-248 -124 c-8 -12 -35 -12 -35 0 0 11 22 20 33 14 4 -2 5 -9 2 -14z
m337 -1 c44 -13 116 -72 137 -112 8 -14 20 -26 26 -26 12 0 20 -60 34 -240 6
-78 4 -86 -16 -107 -13 -12 -23 -33 -23 -47 0 -16 -10 -32 -29 -46 -17 -11
-33 -29 -36 -40 -4 -13 -15 -20 -30 -20 -13 0 -31 -10 -39 -21 -13 -20 -21
-21 -70 -15 -59 7 -114 23 -189 56 -36 16 -47 26 -47 44 0 12 -6 30 -13 41
-13 17 -16 17 -62 1 -61 -20 -65 -20 -36 4 13 11 35 20 48 20 23 0 25 3 19 33
-31 145 -27 242 15 336 53 121 182 178 311 139z m258 -87 c0 -11 -38 -21 -56
-14 -8 3 -11 9 -8 14 7 12 64 12 64 0z m-744 -207 c17 -14 17 -15 1 -10 -10 3
-23 6 -28 6 -5 0 -9 5 -9 10 0 14 13 12 36 -6z m92 -42 c2 -7 -6 -12 -17 -12
-21 0 -27 11 -14 24 9 9 26 2 31 -12z m607 -372 c-3 -5 -12 -7 -20 -3 -21 7
-19 13 6 13 11 0 18 -4 14 -10z"/>
<path d="M8696 1831 c-3 -5 1 -11 9 -15 9 -3 15 0 15 9 0 16 -16 20 -24 6z"/>
<path d="M9876 1799 c-71 -7 -103 -15 -111 -26 -7 -9 -17 -13 -23 -9 -7 4 -25
-1 -42 -11 -29 -17 -30 -17 -46 5 -13 19 -24 22 -87 22 -77 0 -147 -15 -159
-34 -13 -20 -8 -84 7 -100 19 -19 77 -26 185 -23 47 1 90 -2 96 -6 8 -4 14
-69 19 -184 4 -98 12 -207 19 -243 8 -42 9 -78 3 -102 -7 -28 -5 -45 6 -68 9
-17 11 -32 6 -36 -5 -3 -9 -25 -9 -48 0 -55 28 -91 80 -107 33 -10 43 -9 65 5
33 22 33 39 -1 26 -33 -13 -34 -13 -28 5 4 10 20 15 45 15 43 0 44 1 33 84 -6
40 -10 47 -25 43 -11 -3 -21 -1 -24 4 -3 4 6 11 20 15 30 7 29 -19 10 328 -16
292 -17 286 37 286 25 0 52 17 60 39 1 4 18 6 36 4 27 -5 32 -9 26 -25 -5 -18
-3 -19 28 -13 75 14 107 42 108 92 0 26 -6 36 -31 48 -39 21 -173 27 -303 14z
m34 -23 c0 -8 -11 -28 -25 -43 -20 -23 -26 -25 -34 -14 -13 20 -3 39 28 56 33
18 31 18 31 1z m-110 -56 c0 -5 -9 -10 -19 -10 -11 0 -23 5 -26 10 -4 6 5 10
19 10 14 0 26 -4 26 -10z m320 -5 c-14 -16 -40 -20 -40 -6 0 10 17 19 39 20
11 1 11 -2 1 -14z m-460 -44 c0 -5 -10 -11 -22 -15 -36 -9 -41 -7 -28 9 13 16
50 21 50 6z m480 -1 c0 -5 -7 -10 -15 -10 -8 0 -15 5 -15 10 0 6 7 10 15 10 8
0 15 -4 15 -10z m-339 -52 c1 -7 1 -16 0 -20 0 -5 7 -8 17 -8 21 0 49 -17 41
-25 -4 -3 -19 0 -35 7 -16 6 -30 12 -30 13 -1 0 -5 10 -8 23 -5 13 -3 22 3 22
6 0 12 -6 12 -12z m23 -94 c20 -8 11 -24 -15 -24 -10 0 -19 7 -19 15 0 16 9
19 34 9z m1 -74 c3 -5 -1 -10 -9 -10 -9 0 -16 5 -16 10 0 6 4 10 9 10 6 0 13
-4 16 -10z m19 -50 c32 -12 34 -29 4 -28 -25 2 -48 15 -48 29 0 12 13 11 44
-1z m-25 -234 c14 -17 0 -29 -23 -20 -17 7 -20 16 -9 27 10 11 19 8 32 -7z
m53 -68 c-9 -9 -15 -9 -24 0 -9 9 -7 12 12 12 19 0 21 -3 12 -12z m-51 -49
c-16 -6 -28 -6 -35 1 -7 7 1 10 25 9 32 0 33 -1 10 -10z"/>
<path d="M9092 1753 c-24 -3 -32 -8 -28 -19 6 -15 -19 -20 -28 -6 -3 5 -40 8
-83 6 -82 -2 -145 -3 -178 -1 -77 3 -115 -4 -144 -29 -38 -31 -40 -54 -7 -54
14 0 28 -5 32 -11 5 -8 -3 -10 -25 -7 -33 5 -38 -1 -19 -20 9 -9 8 -16 -4 -29
-15 -16 -15 -36 -5 -175 8 -116 14 -158 23 -158 7 0 17 8 23 17 5 10 13 15 17
11 13 -13 -25 -58 -43 -51 -14 5 -15 1 -10 -33 4 -21 7 -49 7 -61 0 -19 6 -23
29 -23 58 0 92 12 102 37 7 19 14 22 33 17 20 -5 25 -2 28 18 3 25 19 28 248
42 56 4 84 9 82 17 -4 16 17 39 36 39 12 0 13 -3 4 -12 -23 -23 -13 -38 26
-38 56 0 84 24 80 68 -4 54 -50 78 -143 75 -86 -2 -183 -28 -147 -38 23 -8 28
-20 12 -30 -5 -3 -20 5 -32 18 -13 13 -32 23 -43 23 -11 1 -43 4 -71 8 -50 7
-51 7 -64 -23 -7 -17 -17 -31 -22 -31 -6 0 -7 7 -2 18 4 9 8 45 9 79 0 34 3
65 7 68 4 4 4 31 1 61 -6 52 -5 54 23 65 18 7 58 9 106 5 54 -5 89 -2 117 8
22 7 38 9 35 4 -4 -6 29 -9 90 -7 87 4 98 6 122 30 l26 26 -26 26 c-29 29 -34
52 -10 43 10 -4 14 -1 12 6 -8 23 -98 33 -196 21z m-381 -43 c11 0 17 -4 14
-10 -8 -13 -85 -13 -85 -1 0 12 21 21 38 15 8 -2 23 -4 33 -4z m324 0 c4 -6
-5 -10 -19 -10 -14 0 -26 5 -26 10 0 6 9 10 19 10 11 0 23 -4 26 -10z m-95
-56 c0 -9 -7 -14 -17 -12 -25 5 -28 28 -4 28 12 0 21 -6 21 -16z m-252 -83 c3
-8 -1 -12 -9 -9 -7 2 -15 10 -17 17 -3 8 1 12 9 9 7 -2 15 -10 17 -17z m50
-249 c3 -30 1 -32 -27 -32 -33 0 -42 16 -15 27 8 3 13 11 10 18 -2 7 -2 16 2
19 13 13 27 -2 30 -32z m72 -32 c0 -5 -4 -10 -10 -10 -5 0 -10 -4 -10 -10 0
-5 9 -10 20 -10 24 0 27 -15 4 -24 -21 -8 -20 -8 -39 10 -8 9 -22 13 -30 10
-23 -8 -18 -25 5 -19 14 4 20 0 20 -12 0 -11 -5 -15 -14 -12 -8 3 -16 1 -18
-5 -6 -17 -28 0 -28 22 0 11 17 28 43 44 46 28 57 31 57 16z m257 -34 c-2 -6
-12 -13 -22 -15 -12 -2 -16 1 -12 12 3 8 0 20 -6 27 -9 8 -5 8 16 -1 15 -7 26
-17 24 -23z"/>
<path d="M7918 1710 c-53 -5 -111 -16 -128 -25 -40 -21 -64 -75 -56 -124 4
-20 6 -60 6 -88 -1 -42 2 -53 14 -53 18 0 22 25 6 35 -5 3 -10 10 -10 16 0 14
30 11 47 -7 14 -14 14 -16 -2 -28 -16 -12 -16 -13 -1 -19 32 -12 17 -28 -20
-21 l-37 7 7 -69 c15 -163 18 -184 28 -184 6 0 6 -6 -1 -14 -9 -10 -11 -45 -7
-113 3 -54 5 -99 5 -101 1 -2 5 -1 10 2 4 3 17 -1 27 -9 18 -14 17 -14 -10
-15 l-28 0 5 -59 c7 -71 16 -92 52 -111 22 -12 29 -12 48 0 12 7 33 19 46 26
38 20 57 64 27 64 -7 0 -19 6 -26 14 -6 8 -19 13 -28 10 -9 -3 -5 2 11 11 15
8 27 22 27 30 0 8 8 19 18 24 16 8 16 19 8 115 -11 124 -5 136 58 136 28 0 68
-13 128 -42 84 -41 105 -58 73 -58 -10 0 2 -23 36 -65 45 -55 55 -63 71 -54
17 9 18 8 9 -10 -18 -32 -13 -59 14 -77 14 -9 25 -21 25 -26 0 -5 14 -24 31
-41 28 -27 32 -29 41 -14 10 18 34 23 40 8 2 -4 22 0 46 10 45 20 53 41 27 75
-8 10 -15 27 -15 37 0 11 -8 17 -25 17 -27 0 -32 9 -14 27 18 18 -17 72 -108
162 -80 79 -99 116 -54 104 14 -4 24 3 35 26 17 33 32 39 38 19 6 -16 51 33
81 87 28 51 30 172 4 221 -27 52 -111 120 -164 134 -62 15 -291 21 -415 10z
m372 -80 c8 -5 12 -12 9 -15 -8 -8 -39 5 -39 16 0 11 11 11 30 -1z m110 -62
c0 -4 -9 -12 -19 -17 -14 -8 -22 -7 -31 4 -7 8 -19 15 -26 15 -26 0 -14 16 19
26 25 8 35 7 45 -5 6 -8 12 -18 12 -23z m-227 -8 c95 -12 117 -17 117 -31 0
-4 8 -16 19 -26 17 -16 17 -24 7 -87 -10 -61 -15 -70 -41 -81 -17 -7 -24 -14
-17 -14 6 -1 12 -6 12 -12 0 -7 -12 -9 -36 -4 -27 5 -35 3 -32 -7 3 -7 15 -15
29 -19 23 -7 23 -7 2 -8 -13 -1 -23 -6 -23 -12 0 -6 10 -9 23 -7 22 4 61 -25
49 -36 -14 -14 -62 -5 -72 14 -15 27 -27 25 -33 -6 -3 -18 -1 -24 9 -20 8 3
14 1 14 -4 0 -22 -41 -9 -50 16 -13 33 -14 31 15 38 29 7 33 31 8 41 -10 3
-65 3 -123 0 l-105 -7 -11 36 c-6 20 -8 39 -4 41 4 3 4 22 1 42 -4 21 -5 62
-3 91 3 40 8 52 20 53 10 0 33 6 52 13 19 7 46 11 60 10 14 -2 64 -8 113 -14z
m100 13 c-7 -2 -19 -2 -25 0 -7 3 -2 5 12 5 14 0 19 -2 13 -5z m-419 -70 c-9
-36 -12 -39 -25 -26 -8 8 -8 17 0 32 17 30 33 26 25 -6z m14 -121 c2 -8 -8
-12 -30 -12 -31 1 -32 1 -13 15 21 17 37 15 43 -3z m598 -23 c-15 -12 -30 -18
-33 -15 -8 8 27 35 46 36 7 0 2 -10 -13 -21z m-636 -39 c0 -12 -28 -25 -36
-17 -9 9 6 27 22 27 8 0 14 -5 14 -10z m59 -246 c3 -16 1 -17 -13 -5 -19 16
-21 34 -3 29 6 -3 14 -13 16 -24z m-94 -94 c3 -5 1 -10 -4 -10 -6 0 -11 5 -11
10 0 6 2 10 4 10 3 0 8 -4 11 -10z m25 -135 c-7 -8 -17 -15 -22 -15 -6 0 -5 7
2 15 7 8 17 15 22 15 6 0 5 -7 -2 -15z m60 -39 c0 -8 -13 -13 -31 -13 l-31 0
23 18 c25 18 39 17 39 -5z m60 -16 c0 -5 -6 -10 -14 -10 -8 0 -18 5 -21 10 -3
6 3 10 14 10 12 0 21 -4 21 -10z"/>
<path d="M6110 1690 c0 -5 7 -10 15 -10 8 0 15 5 15 10 0 6 -7 10 -15 10 -8 0
-15 -4 -15 -10z"/>
<path d="M7167 1659 c-47 -11 -109 -42 -127 -64 -8 -9 -30 -25 -50 -35 -22
-11 -50 -39 -68 -67 -50 -78 -103 -323 -82 -378 6 -15 16 -57 24 -94 25 -119
104 -241 176 -271 17 -7 30 -16 30 -21 0 -15 103 -40 190 -46 69 -5 92 -2 118
11 18 9 38 16 45 15 36 -4 62 4 87 30 16 16 37 32 47 36 15 6 15 8 3 12 -8 3
-22 7 -30 9 -9 3 0 12 26 23 39 18 62 46 48 60 -3 3 -28 6 -55 6 -57 0 -69 16
-20 26 46 9 104 -17 95 -43 -3 -12 0 -18 9 -18 16 0 51 75 61 132 8 46 -14
103 -44 113 -26 8 -29 6 -45 -42 -9 -28 -25 -45 -56 -63 -28 -16 -52 -40 -65
-66 -11 -22 -25 -39 -30 -37 -5 2 -20 -6 -32 -17 -11 -11 -35 -20 -51 -20 -16
0 -42 -5 -58 -11 -49 -19 -73 -21 -67 -5 4 11 0 13 -15 9 -14 -3 -37 7 -71 31
-27 20 -58 36 -68 36 -26 0 -33 9 -20 30 9 14 8 23 -4 42 -18 27 -30 75 -33
132 -2 23 -10 45 -19 51 -14 11 -15 14 -1 25 8 7 15 26 15 43 0 16 11 61 25
99 14 38 25 78 25 89 0 10 6 19 13 19 7 0 22 8 33 19 11 10 31 24 43 31 19 10
22 17 17 43 -5 30 -5 31 9 13 8 -11 15 -23 15 -28 0 -4 5 -8 11 -8 6 0 9 9 6
20 -3 11 -1 23 5 26 5 3 12 -3 15 -15 6 -24 14 -26 30 -10 8 8 13 8 17 0 4 -6
15 -11 24 -11 9 0 39 -11 67 -24 27 -13 58 -27 68 -30 9 -3 17 -15 17 -26 0
-12 11 -32 25 -46 14 -14 25 -31 25 -38 0 -25 29 -39 70 -33 84 11 113 59 71
114 -11 13 -17 31 -14 39 3 7 -2 17 -12 20 -9 4 -14 12 -12 18 5 13 -8 33 -36
55 -15 12 -20 12 -33 -5 -15 -18 -15 -18 -11 9 5 33 -27 56 -112 81 -59 17
-200 20 -264 5z m58 -79 c-3 -5 -10 -10 -16 -10 -5 0 -9 5 -9 10 0 6 7 10 16
10 8 0 12 -4 9 -10z m395 -135 c0 -9 -39 -5 -45 5 -4 6 -4 18 -1 27 6 14 9 13
26 -5 11 -12 20 -24 20 -27z m-620 -5 c12 -8 12 -10 -3 -16 -20 -7 -47 1 -47
16 0 12 30 13 50 0z m528 -2 c-3 -7 -11 -13 -18 -13 -7 0 -15 6 -17 13 -3 7 4
12 17 12 13 0 20 -5 18 -12z m122 -28 c0 -12 -28 -20 -45 -14 -25 10 -17 21
15 22 17 0 30 -3 30 -8z m-730 -59 c0 -5 13 -17 29 -28 28 -17 29 -19 12 -39
-9 -11 -29 -23 -44 -26 -25 -5 -26 -3 -20 21 3 14 10 28 15 29 18 7 7 23 -12
17 -20 -6 -29 13 -13 28 9 10 33 8 33 -2z m68 -93 c-2 -6 -10 -14 -16 -16 -7
-2 -10 2 -6 12 7 18 28 22 22 4z m-48 -38 c12 -8 11 -10 -7 -10 -13 0 -23 5
-23 10 0 13 11 13 30 0z m19 -64 c-12 -10 -89 -13 -89 -3 0 6 2 8 5 5 3 -3 22
0 43 7 23 8 38 10 41 4 1 -6 1 -12 0 -13z m-49 -46 c-20 -13 -40 -13 -40 0 0
6 12 10 28 10 21 0 24 -2 12 -10z m49 -85 c35 -18 51 -50 20 -40 -11 4 -25 2
-32 -3 -7 -5 -23 -12 -37 -15 -24 -6 -24 -5 -6 9 16 11 17 17 8 26 -33 33 -2
49 47 23z m66 5 c-3 -5 -10 -10 -16 -10 -5 0 -9 5 -9 10 0 6 7 10 16 10 8 0
12 -4 9 -10z m-35 -112 c9 -3 2 -9 -17 -16 -25 -8 -34 -8 -44 4 -8 10 -8 14 0
14 6 0 11 10 11 23 l0 22 18 -21 c9 -12 24 -24 32 -26z m600 -58 c0 -5 -4 -10
-9 -10 -6 0 -13 5 -16 10 -3 6 1 10 9 10 9 0 16 -4 16 -10z m-466 -16 c9 -22
8 -24 -9 -24 -8 0 -15 9 -15 20 0 24 15 27 24 4z m373 -10 c4 -11 -75 -39 -85
-30 -3 3 3 15 13 26 20 22 65 24 72 4z m-307 -14 c0 -5 -12 -10 -26 -10 -14 0
-23 4 -19 10 3 6 15 10 26 10 10 0 19 -4 19 -10z m125 -42 c29 -13 31 -21 11
-37 -12 -10 -18 -7 -31 18 -17 35 -16 36 20 19z m102 -15 c-9 -9 -19 -14 -23
-11 -10 10 6 28 24 28 15 0 15 -1 -1 -17z m-22 -33 c-3 -5 -12 -10 -20 -10 -8
0 -17 5 -20 10 -4 6 5 10 20 10 15 0 24 -4 20 -10z"/>
<path d="M6488 1613 c-10 -2 -15 -10 -11 -19 6 -17 -11 -18 -29 -1 -8 7 -36
11 -73 10 -33 -1 -115 -3 -183 -5 l-124 -3 -29 -33 c-32 -35 -30 -55 3 -50 12
2 23 -3 26 -11 3 -10 -3 -11 -29 -6 -34 7 -34 7 -16 -13 17 -18 17 -21 2 -29
-14 -8 -15 -27 -9 -171 7 -169 16 -195 49 -149 l16 22 -3 -25 c-2 -15 -13 -30
-30 -38 -24 -11 -26 -15 -17 -44 5 -18 7 -40 4 -49 -8 -23 29 -31 81 -18 32 8
44 17 48 35 7 25 20 31 31 14 11 -18 25 -10 25 14 0 26 17 29 229 42 98 6 111
9 111 25 0 10 9 23 20 29 20 11 30 -3 10 -15 -5 -3 -10 -13 -10 -22 0 -25 89
-11 113 18 22 27 16 66 -14 91 -39 33 -156 36 -254 6 -32 -10 -36 -13 -17 -16
12 -2 22 -9 22 -16 0 -24 -11 -24 -36 -1 -14 13 -43 25 -70 29 -83 11 -98 8
-112 -22 -8 -18 -9 -28 -2 -30 7 -3 7 -9 -1 -18 -10 -12 -8 -16 9 -21 26 -6
19 -23 -9 -23 -10 0 -19 -4 -19 -10 0 -5 -9 -10 -20 -10 -11 0 -20 -4 -20 -10
0 -5 -4 -10 -10 -10 -5 0 -10 13 -10 30 0 24 7 33 36 48 21 11 32 22 26 26 -7
4 -5 19 6 47 13 33 14 47 4 72 -8 22 -9 34 -1 43 7 9 8 32 4 65 -5 39 -4 54 6
60 8 5 66 9 129 9 63 0 122 4 130 10 9 6 17 5 21 -2 5 -7 35 -8 93 -3 70 5 92
11 114 30 l27 23 -22 24 c-28 29 -29 45 -5 51 13 3 11 6 -11 15 -27 11 -163
15 -199 5z m-38 -45 c0 -6 -7 -7 -16 -4 -9 3 -20 6 -25 6 -6 0 -8 4 -5 9 8 12
46 2 46 -11z m-320 2 c11 -7 2 -10 -33 -10 -30 0 -46 4 -42 10 8 13 55 13 75
0z m228 -47 c5 -18 -28 -29 -38 -12 -5 7 -6 17 -3 22 7 12 35 5 41 -10z m-258
-83 c0 -5 -7 -10 -15 -10 -8 0 -15 5 -15 10 0 6 7 10 15 10 8 0 15 -4 15 -10z
m60 -254 c-1 -26 -17 -37 -45 -30 -25 6 -26 8 -12 19 10 7 17 19 17 27 0 24
14 30 27 12 7 -10 13 -23 13 -28z m320 -61 c0 -7 -7 -15 -15 -19 -11 -4 -15 1
-15 19 0 18 4 23 15 19 8 -4 15 -12 15 -19z"/>
<path d="M5445 1566 c-96 -24 -172 -76 -213 -145 -22 -38 -27 -58 -27 -111 1
-72 20 -140 39 -140 7 0 18 -11 24 -24 17 -37 88 -73 180 -90 46 -9 91 -20
101 -25 10 -6 50 -17 90 -26 95 -22 141 -62 141 -124 0 -58 -20 -92 -72 -121
-35 -20 -57 -24 -120 -25 -90 0 -116 14 -163 90 -16 27 -47 67 -67 88 -33 34
-41 38 -70 32 -70 -14 -89 -68 -57 -156 28 -77 79 -131 158 -168 50 -23 68
-26 166 -26 61 0 129 6 153 13 39 12 42 15 42 47 0 19 -4 35 -10 35 -5 0 -10
5 -10 10 0 6 27 10 63 9 59 0 61 -1 40 -16 -23 -16 -31 -43 -13 -43 6 0 10 4
10 9 0 5 15 18 34 29 18 11 46 37 62 58 24 30 29 48 30 94 0 31 4 62 8 68 3 6
2 13 -4 17 -5 3 -7 17 -4 29 10 43 -48 146 -83 146 -7 0 -21 8 -31 18 -24 24
-169 71 -248 81 -35 4 -64 5 -64 2 0 -2 10 -15 23 -29 l22 -24 -35 4 c-31 3
-35 6 -32 29 4 37 -19 51 -88 50 -64 0 -73 8 -42 42 12 15 14 21 5 24 -19 7
-16 24 12 65 14 20 25 46 25 57 0 11 5 23 10 26 6 3 10 15 10 26 0 25 20 25
27 -1 4 -16 9 -18 26 -9 17 10 19 9 13 -6 -6 -15 -2 -17 30 -12 41 7 131 -23
157 -51 12 -13 29 -17 59 -16 24 1 43 3 43 4 0 6 57 4 61 -2 3 -4 -2 -8 -11
-8 -10 0 -15 -6 -12 -13 3 -8 1 -20 -4 -28 -7 -11 -11 -10 -22 5 -14 19 -15
19 -31 -12 -16 -31 -16 -32 4 -32 11 0 20 -4 20 -10 0 -11 30 -13 55 -4 19 8
45 55 45 83 0 36 -31 100 -51 106 -14 5 -26 -1 -39 -17 -16 -21 -26 -24 -76
-22 -39 2 -62 7 -70 18 -6 9 -20 16 -30 17 -18 0 -18 1 1 9 11 5 60 9 108 9
66 1 88 4 85 14 -11 32 -147 95 -155 71 -3 -8 -20 -7 -55 3 -63 16 -106 15
-173 -1z m155 -16 c0 -5 -6 -10 -14 -10 -8 0 -18 5 -21 10 -3 6 3 10 14 10 12
0 21 -4 21 -10z m51 -20 c5 0 9 -4 9 -10 0 -5 -11 -10 -24 -10 -13 0 -27 -7
-30 -16 -4 -9 -9 -15 -12 -12 -10 11 20 59 34 53 7 -3 18 -5 23 -5z m-141 -19
c0 -13 -29 -35 -37 -28 -7 8 15 37 28 37 5 0 9 -4 9 -9z m50 -11 c0 -5 -7 -10
-15 -10 -8 0 -15 5 -15 10 0 6 7 10 15 10 8 0 15 -4 15 -10z m-175 -10 c3 -5
4 -10 1 -10 -2 0 -11 -3 -19 -6 -8 -3 -17 2 -20 10 -7 18 27 23 38 6z m70
-293 c17 -13 17 -15 -6 -30 -34 -25 -119 -21 -119 5 0 5 20 8 45 7 25 -2 44 1
42 6 -1 6 -12 9 -24 7 -13 -1 -23 2 -23 8 0 15 63 12 85 -3z m205 -36 c0 -5
-13 -14 -30 -20 -32 -11 -41 2 -12 18 21 13 42 14 42 2z m-61 -40 c9 -6 10
-10 2 -16 -15 -8 -41 1 -41 15 0 12 20 13 39 1z m181 -1 c17 -11 13 -15 -22
-24 -21 -5 -28 -3 -28 8 0 12 13 23 30 25 3 0 12 -3 20 -9z m-226 -36 c26 -10
18 -24 -14 -24 -20 0 -30 5 -30 15 0 16 17 19 44 9z m286 -15 c0 -5 -7 -9 -15
-9 -8 0 -15 7 -15 15 0 9 6 12 15 9 8 -4 15 -10 15 -15z m-120 2 c0 -12 -20
-25 -27 -18 -7 7 6 27 18 27 5 0 9 -4 9 -9z m60 -7 c0 -9 -7 -14 -17 -12 -25
5 -28 28 -4 28 12 0 21 -6 21 -16z"/>
<path d="M4581 1499 c-63 -45 -98 -149 -51 -149 11 0 20 -4 20 -10 0 -5 -11
-10 -24 -10 -21 0 -28 -10 -54 -77 -17 -43 -49 -136 -71 -208 -23 -71 -61
-181 -85 -245 -57 -148 -62 -179 -41 -220 19 -36 73 -63 109 -54 38 9 55 35
77 115 11 41 27 88 35 105 l15 31 112 7 c62 3 147 7 191 7 l78 2 29 -69 c33
-78 80 -141 116 -155 27 -10 79 7 102 35 12 14 11 19 -5 38 -17 19 -17 21 -1
15 24 -9 22 15 -8 83 -16 38 -29 54 -40 52 -13 -3 -14 0 -5 15 9 15 -1 43 -54
155 -36 75 -95 208 -132 295 -36 87 -76 175 -90 196 -54 83 -147 102 -223 46z
m119 -240 c0 -9 9 -24 20 -34 11 -10 20 -30 20 -45 0 -15 20 -74 45 -130 25
-56 44 -104 43 -106 -2 -1 -66 -6 -142 -10 -121 -6 -139 -5 -134 8 25 65 58
185 58 212 0 19 7 39 15 46 17 14 21 35 5 25 -5 -3 -10 -1 -10 4 0 6 4 11 10
11 5 0 15 18 21 41 l13 41 18 -24 c9 -13 18 -30 18 -39z m-90 -369 c-6 -11
-15 -18 -21 -14 -6 4 -6 11 2 20 17 21 31 17 19 -6z"/>
<path d="M3531 1479 c-103 -11 -131 -24 -153 -69 -20 -39 -24 -100 -7 -117 7
-7 8 -17 1 -30 -13 -24 -4 -73 14 -73 16 0 19 26 4 35 -5 3 -10 10 -10 16 0
14 30 11 47 -7 14 -14 14 -16 -2 -28 -16 -12 -16 -13 -1 -19 30 -12 16 -26
-20 -20 l-37 6 7 -79 c11 -135 18 -174 28 -174 7 0 6 -5 -1 -14 -16 -19 -9
-211 7 -212 7 -1 17 -2 22 -3 19 -2 10 -21 -10 -21 -18 0 -21 -6 -19 -47 1
-63 15 -98 46 -119 24 -15 28 -15 79 11 30 15 54 31 54 35 0 5 3 15 6 24 4 10
1 16 -8 16 -8 0 -23 9 -33 20 -16 18 -16 20 -1 26 9 3 16 13 16 20 0 8 7 17
16 21 14 5 15 20 9 115 -5 80 -4 112 5 123 23 28 89 18 183 -27 83 -41 105
-58 72 -58 -10 0 1 -20 32 -60 41 -52 51 -60 73 -55 20 5 23 4 13 -6 -22 -22
-16 -67 12 -85 14 -9 25 -21 25 -26 0 -5 13 -22 29 -38 26 -26 29 -27 44 -13
11 12 20 13 29 6 9 -7 25 -5 56 8 45 20 53 41 27 75 -8 10 -15 27 -15 37 0 10
-8 17 -18 17 -25 0 -34 10 -23 24 17 21 -20 79 -106 164 -84 84 -103 117 -60
107 17 -5 26 1 40 25 14 24 22 28 32 20 9 -8 20 -2 44 25 62 71 80 139 61 232
-10 51 -19 65 -69 114 -39 39 -70 59 -101 68 -58 16 -330 22 -439 10z m389
-79 c8 -5 12 -12 9 -15 -8 -8 -39 5 -39 16 0 11 11 11 30 -1z m110 -62 c0 -4
-9 -12 -19 -17 -14 -8 -22 -7 -31 4 -7 8 -19 15 -26 15 -26 0 -14 17 19 27 25
8 35 7 45 -5 6 -9 12 -19 12 -24z m-125 12 c3 -5 -3 -10 -15 -10 -12 0 -18 5
-15 10 3 6 10 10 15 10 5 0 12 -4 15 -10z m-130 -15 c92 -8 145 -23 145 -39 0
-8 8 -20 19 -27 17 -13 17 -20 8 -81 -10 -61 -14 -68 -41 -80 -16 -6 -24 -14
-18 -16 25 -8 0 -21 -30 -15 -23 5 -30 3 -26 -8 2 -7 15 -16 29 -20 23 -7 23
-7 2 -8 -13 -1 -23 -6 -23 -12 0 -7 9 -9 21 -6 22 6 62 -21 53 -35 -11 -17
-63 -8 -74 12 -14 27 -27 25 -32 -4 -4 -18 -1 -23 10 -18 10 3 13 1 8 -6 -12
-20 -36 -13 -46 14 -13 33 -13 34 4 34 7 0 19 7 27 16 23 28 -8 36 -127 29
l-111 -6 -8 33 c-7 31 -8 75 -6 183 1 43 2 44 39 51 20 4 44 10 52 15 8 4 24
6 35 4 11 -2 52 -7 90 -10z m-285 -39 c0 -3 -5 -17 -10 -32 -8 -19 -14 -24
-21 -17 -8 8 -7 17 0 32 10 18 31 30 31 17z m8 -144 c2 -8 -8 -12 -30 -12 -31
1 -32 1 -13 15 21 17 37 15 43 -3z m597 -21 c-16 -10 -32 -17 -34 -15 -7 7 33
33 49 34 8 0 2 -8 -15 -19z m-648 -48 c-9 -9 -19 -14 -23 -11 -10 10 6 28 24
28 15 0 15 -1 -1 -17z m72 -239 c3 -16 1 -17 -13 -5 -19 16 -21 34 -3 29 6 -3
14 -13 16 -24z m-94 -94 c3 -5 1 -10 -4 -10 -6 0 -11 5 -11 10 0 6 2 10 4 10
3 0 8 -4 11 -10z m22 -137 c-9 -9 -20 -13 -24 -9 -4 4 -1 11 7 16 25 16 35 11
17 -7z m61 -35 c2 -10 -6 -15 -28 -15 -16 0 -30 4 -30 9 0 4 7 8 15 8 8 0 15
5 15 11 0 16 25 5 28 -13z m57 -7 c7 -12 -12 -24 -25 -16 -11 7 -4 25 10 25 5
0 11 -4 15 -9z"/>
<path d="M2911 1433 c-41 -3 -59 -9 -69 -24 -9 -14 -18 -17 -24 -11 -7 7 -20
4 -39 -7 -28 -15 -29 -15 -45 8 -17 23 -20 24 -107 17 -118 -8 -141 -19 -145
-71 -5 -73 7 -79 165 -85 l138 -5 6 -75 c4 -41 7 -120 8 -175 1 -55 8 -134 15
-175 9 -50 10 -86 4 -108 -7 -24 -5 -41 7 -65 10 -20 12 -33 5 -35 -13 -5 -13
-62 0 -96 12 -31 65 -66 101 -66 15 0 37 9 50 21 l24 20 -32 -5 c-26 -4 -33
-2 -33 10 0 12 9 15 38 12 l37 -3 0 65 c0 61 -1 65 -22 63 -28 -3 -30 13 -3
22 14 5 20 15 20 38 0 48 -19 401 -26 488 l-6 76 48 9 c40 8 60 22 70 52 0 1
15 -3 32 -9 20 -7 29 -15 25 -25 -13 -34 107 -1 127 35 5 11 10 34 10 51 0 48
-41 60 -197 58 -70 -1 -153 -3 -182 -5z m79 -20 c0 -15 -40 -73 -50 -73 -16 0
-12 42 7 62 16 18 43 25 43 11z m-110 -52 c0 -16 -28 -20 -40 -5 -10 12 -8 14
14 14 14 0 26 -4 26 -9z m320 -6 c-7 -8 -19 -15 -27 -15 -13 0 -13 3 -3 15 7
8 19 15 27 15 13 0 13 -3 3 -15z m-460 -43 c0 -8 -43 -32 -56 -32 -3 0 0 9 6
20 10 19 50 29 50 12z m475 -2 c3 -5 -1 -10 -10 -10 -9 0 -13 5 -10 10 3 6 8
10 10 10 2 0 7 -4 10 -10z m-322 -70 c9 -11 24 -20 32 -20 8 0 15 -5 15 -11 0
-7 -7 -8 -17 -4 -10 4 -25 9 -35 12 -9 3 -18 13 -21 24 -7 25 4 24 26 -1z m18
-80 c5 0 9 -4 9 -10 0 -5 -11 -10 -25 -10 -16 0 -25 6 -25 16 0 11 5 14 16 10
9 -3 20 -6 25 -6z m-7 -82 c-3 -5 -12 -4 -20 3 -19 16 -18 18 6 12 11 -3 17
-9 14 -15z m21 -40 c31 -14 32 -28 2 -28 -23 0 -47 17 -47 32 0 11 15 10 45
-4z m-29 -232 c19 -20 18 -26 -5 -26 -22 0 -35 15 -26 30 8 13 14 13 31 -4z
m59 -66 c-3 -5 -13 -10 -21 -10 -8 0 -14 5 -14 10 0 6 9 10 21 10 11 0 17 -4
14 -10z m-45 -50 c-20 -13 -50 -13 -50 0 0 6 15 10 33 10 24 0 28 -3 17 -10z"/>
<path d="M1511 1361 c-11 -7 -5 -10 20 -13 28 -2 34 -7 34 -28 0 -21 5 -26 33
-28 25 -3 32 0 32 15 0 27 -12 39 -45 47 -16 4 -37 9 -45 11 -8 3 -21 0 -29
-4z"/>
<path d="M1780 1342 c-42 -42 -46 -94 -27 -352 9 -124 19 -281 22 -350 8 -187
20 -221 84 -237 23 -6 240 6 474 26 133 11 163 42 121 123 -13 25 -20 29 -43
25 -16 -3 -32 -2 -37 3 -5 5 -92 4 -199 -1 -104 -5 -192 -5 -196 -1 -3 4 -11
103 -17 221 -6 118 -15 217 -20 220 -5 3 -12 20 -15 38 -5 26 -3 31 8 26 18
-6 19 32 5 156 -12 110 -26 131 -86 131 -37 0 -51 -6 -74 -28z"/>
<path d="M1470 1329 c-12 -8 -12 -12 -2 -16 10 -4 10 -8 -2 -17 -10 -6 -13
-19 -10 -32 7 -26 59 -58 85 -51 10 3 21 1 24 -3 6 -10 -49 -30 -81 -30 -22 0
-24 -4 -24 -54 0 -30 5 -67 10 -82 7 -18 7 -30 -1 -40 -8 -10 -6 -20 10 -40
24 -30 27 -49 9 -41 -10 3 -12 -27 -10 -139 3 -95 0 -144 -6 -144 -6 0 -12
-17 -14 -37 -3 -32 -7 -38 -35 -45 -40 -10 -43 -28 -5 -28 34 0 60 -15 40 -22
-19 -8 -50 -3 -75 10 -19 11 -22 10 -17 -3 4 -8 1 -15 -5 -15 -6 0 -11 5 -11
10 0 6 -30 10 -69 10 -116 0 -166 27 -196 106 -14 37 -20 43 -31 33 -8 -7 -14
-7 -14 -1 0 5 7 13 16 16 8 3 13 10 10 15 -3 5 -7 47 -7 94 -1 46 -8 95 -14
108 -11 19 -10 27 1 45 12 18 13 33 3 92 -11 64 -14 70 -30 62 -12 -7 -20 -6
-25 1 -8 13 21 39 43 39 18 0 17 81 -1 124 -28 68 -120 102 -159 59 -23 -26
-31 -71 -17 -88 10 -12 10 -15 -1 -15 -8 0 -6 -5 6 -12 11 -6 35 -24 53 -41
25 -24 35 -28 44 -19 7 7 18 12 25 12 11 0 11 -5 3 -20 -6 -11 -21 -20 -34
-20 -24 0 -56 28 -56 48 0 15 -37 16 -46 1 -3 -6 -1 -22 6 -34 10 -19 10 -30
0 -54 -6 -17 -9 -47 -6 -68 3 -21 8 -96 11 -168 8 -172 18 -231 37 -219 6 4
16 0 22 -8 6 -9 20 -17 31 -19 11 -3 21 -13 23 -23 3 -16 0 -18 -26 -13 -41 8
-44 1 -21 -44 20 -41 28 -46 46 -28 16 16 195 8 201 -10 3 -10 -4 -12 -39 -5
-43 8 -149 7 -158 -2 -9 -9 34 -45 83 -69 89 -43 230 -43 397 2 99 26 162 97
194 218 23 85 23 350 0 375 -12 13 -13 20 -4 25 14 9 6 112 -10 128 -8 8 -11
6 -11 -6 0 -9 -7 -17 -15 -17 -21 0 -19 16 5 33 11 8 23 28 26 44 5 26 3 31
-11 30 -10 -1 -20 3 -22 9 -2 7 4 11 13 10 9 0 19 5 21 12 3 9 -13 12 -61 12
-37 0 -66 -4 -66 -10 0 -5 5 -10 10 -10 6 0 10 -4 10 -10 0 -14 -13 -12 -36 5
-19 14 -19 14 4 30 27 20 28 35 2 35 -13 0 -18 5 -14 15 7 17 -5 19 -26 4z
m80 -204 c-14 -16 -50 -21 -50 -6 0 11 18 19 44 20 15 1 16 -2 6 -14z m75 -35
c-3 -5 -13 -10 -21 -10 -8 0 -12 5 -9 10 3 6 13 10 21 10 8 0 12 -4 9 -10z
m-649 -105 c-21 -16 -63 -19 -93 -7 -13 5 -6 9 27 13 25 3 54 7 65 7 20 1 20
1 1 -13z m-61 -115 c17 -19 17 -20 0 -26 -17 -7 -45 17 -45 38 0 15 27 8 45
-12z m730 -20 c-3 -5 -13 -10 -21 -10 -8 0 -14 5 -14 10 0 6 9 10 21 10 11 0
17 -4 14 -10z"/>
<path d="M6154 1115 c-18 -14 -18 -14 3 -15 23 0 39 15 25 24 -5 3 -18 -1 -28
-9z"/>
<path d="M8765 1115 c-12 -8 -48 -16 -81 -17 l-61 -3 3 -110 c4 -208 24 -226
234 -205 69 7 184 12 255 11 141 -3 204 8 236 40 28 28 22 76 -13 102 -33 25
-144 34 -219 18 -30 -7 -106 -15 -169 -18 -106 -5 -116 -4 -133 14 -14 17 -16
25 -7 49 13 34 3 134 -14 133 -6 0 -20 -6 -31 -14z m-45 -140 c-14 -17 -40
-20 -40 -5 0 6 10 20 22 32 21 21 23 21 26 5 2 -10 -2 -24 -8 -32z m120 -102
c-1 -9 -25 -43 -31 -43 -2 0 -4 11 -4 25 0 17 6 25 18 25 9 0 17 -3 17 -7z
m373 -37 c3 -8 3 -17 0 -20 -7 -7 -33 13 -33 25 0 15 27 10 33 -5z"/>
<path d="M7538 1038 c9 -9 15 -9 24 0 9 9 7 12 -12 12 -19 0 -21 -3 -12 -12z"/>
<path d="M6188 984 c-11 -11 -40 -18 -87 -22 -67 -4 -80 -10 -64 -26 4 -4 6
-46 5 -94 -2 -109 14 -172 48 -189 31 -16 187 -17 261 -2 30 5 119 10 199 9
171 -1 206 8 226 57 17 41 7 66 -36 88 -36 19 -220 21 -237 4 -16 -16 -251
-15 -267 1 -6 6 -11 48 -11 97 0 89 -8 106 -37 77z m-38 -112 c0 -13 -30 -52
-41 -52 -13 0 -11 34 3 48 13 13 38 16 38 4z m97 -138 c2 -5 -3 -19 -12 -29
-14 -19 -14 -18 -15 13 0 31 18 42 27 16z m377 -30 c4 -9 4 -19 2 -21 -8 -8
-26 8 -26 23 0 19 16 18 24 -2z"/>
<path d="M11209 828 c-114 -5 -179 -12 -204 -23 -30 -12 -41 -13 -53 -3 -8 7
-24 12 -36 10 -12 -1 -160 -9 -331 -17 -636 -31 -697 -35 -707 -41 -5 -4 -101
-8 -211 -10 -239 -5 -555 -19 -629 -29 -29 -3 -64 -11 -77 -18 -19 -9 -25 -9
-28 1 -6 17 -101 16 -135 -2 -15 -8 -30 -11 -33 -7 -7 13 -58 10 -74 -3 -11
-8 -15 -8 -18 2 -7 18 -124 15 -363 -8 -113 -12 -220 -21 -237 -22 -38 -1 -40
-5 -15 -25 16 -13 15 -14 -6 -8 -31 9 -54 -18 -56 -66 l-2 -40 135 6 c75 3
208 10 296 15 88 5 268 15 400 21 200 9 246 14 278 30 45 23 60 24 32 3 -18
-14 -15 -15 40 -12 33 2 60 8 61 13 1 23 28 65 42 65 8 0 12 -6 8 -15 -3 -8
-1 -15 4 -15 6 0 10 -9 10 -19 0 -11 4 -22 9 -26 5 -3 74 0 153 6 79 7 171 11
206 11 52 -1 62 1 62 16 1 15 2 15 10 1 6 -10 19 -14 44 -11 20 2 36 8 36 13
0 5 12 4 26 -1 18 -7 30 -7 38 0 8 6 16 6 22 0 8 -8 141 -2 617 26 79 5 121
11 128 21 14 16 36 17 41 2 3 -9 92 -8 347 4 188 9 346 19 350 22 5 2 4 30 -1
60 -5 31 -6 60 -3 65 9 15 -6 16 -176 8z m-1419 -108 c12 -8 9 -10 -12 -10
-16 0 -28 5 -28 10 0 13 20 13 40 0z m885 0 c-3 -5 -13 -10 -21 -10 -8 0 -12
5 -9 10 3 6 13 10 21 10 8 0 12 -4 9 -10z m-1015 -25 c-7 -9 -15 -13 -17 -11
-7 7 7 26 19 26 6 0 6 -6 -2 -15z m-902 -40 c0 -25 -1 -25 -19 -9 -15 14 -17
19 -7 26 21 13 26 10 26 -17z m371 16 c15 -10 8 -15 -32 -25 -26 -6 -27 -5
-15 14 14 22 25 25 47 11z m574 -36 c-4 -15 -36 -12 -41 3 -3 9 3 13 19 10 13
-1 23 -7 22 -13z m-853 -35 c0 -5 -9 -10 -20 -10 -11 0 -20 5 -20 10 0 6 9 10
20 10 11 0 20 -4 20 -10z m60 0 c0 -5 -9 -10 -21 -10 -11 0 -17 5 -14 10 3 6
13 10 21 10 8 0 14 -4 14 -10z m-805 -19 c9 -16 -35 -35 -48 -22 -9 9 -8 14 3
21 19 12 37 13 45 1z"/>
<path d="M7779 656 c-2 -3 -65 -7 -139 -11 -208 -8 -295 -14 -425 -27 -66 -6
-174 -12 -240 -14 -382 -8 -593 -25 -608 -47 -5 -9 -11 -8 -20 4 -9 12 -24 14
-72 9 -33 -3 -66 -9 -72 -13 -7 -4 -21 -3 -32 2 -14 8 -20 7 -25 -4 -6 -18
-56 -20 -56 -3 0 8 -34 9 -127 5 -529 -27 -961 -49 -1338 -67 -242 -11 -543
-29 -670 -40 -126 -12 -246 -21 -265 -21 -31 0 -33 -1 -17 -13 9 -7 17 -17 17
-21 0 -4 -6 -2 -13 4 -11 8 -18 6 -32 -9 -20 -22 -30 -100 -12 -100 7 0 104 5
217 10 113 5 259 12 325 15 66 3 149 8 185 12 36 4 102 7 148 7 48 1 86 6 90
12 11 18 49 26 58 13 5 -9 2 -10 -9 -6 -10 3 -17 2 -17 -4 0 -6 35 -8 98 -4
53 3 212 10 352 16 140 6 262 12 270 14 16 5 459 30 690 40 321 14 462 26 486
42 14 9 27 13 31 9 3 -3 1 -6 -5 -6 -7 0 -12 -3 -12 -7 0 -5 23 -8 50 -8 49 0
50 1 71 43 21 42 33 51 44 32 3 -6 1 -10 -4 -10 -8 0 -8 -6 -2 -17 5 -10 12
-25 14 -33 5 -17 -2 -17 542 19 165 11 363 21 440 22 126 1 168 6 264 35 10 3
10 8 2 18 -6 7 -8 15 -5 19 3 3 -4 8 -15 12 -26 8 -26 17 -1 40 11 10 20 22
20 27 0 10 -130 5 -148 -6 -7 -4 -12 -2 -12 3 0 11 -13 15 -21 7z m-584 -76
c3 -6 -1 -13 -10 -16 -19 -8 -30 0 -20 15 8 14 22 14 30 1z m365 -19 c0 -11
-29 -35 -35 -29 -10 9 7 38 21 38 8 0 14 -4 14 -9z m-1390 -42 c0 -24 -23 -21
-28 4 -2 10 3 17 12 17 10 0 16 -9 16 -21z m380 11 c0 -5 -6 -10 -14 -10 -8 0
-23 -3 -33 -7 -16 -6 -16 -5 -4 10 15 18 51 23 51 7z m740 -24 c-36 -13 -60
-11 -60 5 0 5 21 9 48 8 l47 -1 -35 -12z m-1480 -15 c0 -18 -18 -21 -30 -6
-10 13 -9 15 9 15 11 0 21 -4 21 -9z m455 -21 c4 -6 -5 -10 -20 -10 -15 0 -24
4 -20 10 3 6 12 10 20 10 8 0 17 -4 20 -10z m50 -10 c-3 -5 -13 -10 -21 -10
-8 0 -14 5 -14 10 0 6 9 10 21 10 11 0 17 -4 14 -10z m-2585 -110 c0 -11 -40
-34 -47 -26 -3 3 -3 12 0 21 7 16 47 21 47 5z"/>
<path d="M3499 426 c-2 -3 -88 -7 -189 -11 -102 -3 -223 -11 -270 -17 -47 -5
-155 -12 -240 -13 -85 -2 -225 -8 -310 -14 -85 -6 -254 -15 -375 -21 -121 -6
-290 -15 -375 -21 -85 -5 -159 -9 -165 -9 -5 0 -11 -11 -11 -25 -2 -18 3 -25
17 -25 10 0 19 -4 19 -9 0 -5 3 -16 6 -25 5 -13 -2 -16 -42 -16 -62 0 -86 13
-55 29 24 13 30 44 6 35 -8 -4 -15 -2 -15 4 0 6 6 12 13 15 6 2 9 7 6 10 -6 8
-576 -21 -599 -30 -8 -3 -55 -5 -103 -3 l-88 2 3 -74 3 -73 80 1 c44 1 201 8
349 17 245 15 271 18 290 37 12 11 29 20 37 20 9 -1 6 -7 -10 -20 -13 -11 -19
-20 -15 -20 20 0 1136 60 1234 67 78 5 108 10 117 22 11 14 12 14 13 -3 0 -15
5 -17 33 -12 17 4 46 8 62 9 17 1 36 6 44 11 8 5 16 4 20 -3 11 -16 456 5 531
26 82 22 87 25 73 30 -7 3 -13 13 -13 24 0 10 -7 19 -15 19 -21 0 -19 13 5 35
11 10 20 22 20 27 0 8 -83 12 -91 4z m-635 -62 c9 -3 16 -9 16 -13 0 -12 -44
-5 -48 7 -4 13 8 15 32 6z m641 -52 c-8 -8 -25 10 -25 27 0 30 14 34 22 5 4
-16 6 -30 3 -32z m-761 23 c-6 -16 -24 -21 -24 -7 0 11 11 22 21 22 5 0 6 -7
3 -15z m41 -65 c-3 -5 -15 -10 -26 -10 -10 0 -19 5 -19 10 0 6 12 10 26 10 14
0 23 -4 19 -10z m-1845 -110 c0 -13 -11 -13 -30 0 -12 8 -11 10 8 10 12 0 22
-4 22 -10z"/>
</g>
</svg>
